# xmcd
#
# Track frame offsets:
#	150
#	13014
#	23087
#	39175
#	53418
#	63889
#	77746
#	92805
#	107553
#	125414
#	142775
#	160352
#
# Disc length: 2290 seconds
# Revision: 0
# Processed by: cddbd v1.5.2PL0 Copyright (c) Steve Scherf et al.
# Submitted via: dBpowerAMP V12.0
#
DISCID=8608f00c
DTITLE=Nothin' Fancy - Time Changes Everything
DYEAR=2018
DGENRE=Bluegrass
TTITLE0=The Footsteps That I've Followed
TTITLE1=Less Of Me
TTITLE2=A Soldier's Love
TTITLE3=Don't Think Twice, It's All Right
TTITLE4=Papa Wants To Go Back
TTITLE5=Time Changes Everything
TTITLE6=I Can't Help But Wonder Where I'm Bound
TTITLE7=Where the Good Lord Only Knows
TTITLE8=Last Lonely Eagle
TTITLE9=The Maker
TTITLE10=Please Say Anything
TTITLE11=That Home Far Away
EXTD=
EXTT0=
EXTT1=
EXTT2=
EXTT3=
EXTT4=
EXTT5=
EXTT6=
EXTT7=
EXTT8=
EXTT9=
EXTT10=
EXTT11=
PLAYORDER=
